<svg id="Layer_1" data-name="Layer 1" xmlns="http://www.w3.org/2000/svg" viewBox="0 0 5118.34 421.5"><defs><style>.cls-1{fill:#fff;}</style></defs><title>main-name</title><path class="cls-1" d="M160.06,510q-7.2,0-15.6-.3t-11.4-.3q-43.8-4.19-79.2-28.2-5.4-3.6-11.1-7.8t-11.1-9l-2.4-2.4,51.6-52.2q-4.81-4.19-9.6-8.7a59.11,59.11,0,0,1-7.8-8.7l-1.8-2.4,21.6-20.4,2.4,2.4a143.72,143.72,0,0,0,19.2,19.2l2.4,2.4-15.6,15.6q6,5.4,7.8,6a109.2,109.2,0,0,0,17.1,10.5,57.06,57.06,0,0,0,18.3,5.1h3.6v45a150.47,150.47,0,0,0,27,0,146.22,146.22,0,0,0,39.3-8.7,104.57,104.57,0,0,0,32.1-18.9,65.7,65.7,0,0,0,8.7-7.8,110.2,110.2,0,0,0,7.5-9,110,110,0,0,0,10.8-19.2l-55.8-24a24.62,24.62,0,0,1-2.7,5.1,33.61,33.61,0,0,0-2.7,4.5,61.12,61.12,0,0,1-3.6,5.4,44.86,44.86,0,0,1-4.2,4.8q-14.4,13.81-32.4,16.2a65.25,65.25,0,0,1-9.9,1.5,48.06,48.06,0,0,1-9.3-.3h-3.6l-.6-21,4.2.6a63.58,63.58,0,0,0,16.8-1.2,52.66,52.66,0,0,0,11.1-3.9,24.51,24.51,0,0,0,9.3-7.5q8.4-9,9.9-17.4a114.66,114.66,0,0,0,1.5-19.8V90h109.2v184.8h-20.4v80.4a178,178,0,0,1-3,38.4q-1.21,4.21-2.4,7.8t-2.4,7.2l29.4,12.6-1.8,3a17.8,17.8,0,0,1-1.5,3.9q-1.51,3.3-3.9,7.8t-5.4,9l-5.4,8.1q-4.81,6-9.6,11.7a76.94,76.94,0,0,1-10.8,10.5q-37.8,31.2-96,34.8Zm-120.6-48.6a111.25,111.25,0,0,0,18.6,14.4,161.88,161.88,0,0,0,75.6,26.4c1.59.4,5.1.6,10.5.6h23.7a164.56,164.56,0,0,0,50.4-9.9,139.67,139.67,0,0,0,40.8-23.1q5.4-4.79,10.2-9.9t9.6-11.1q3-4.79,7.2-12t6.6-12l-22.2-9.6q-3,5.4-5.7,10.5a74.44,74.44,0,0,1-6.3,9.9,113.1,113.1,0,0,1-7.8,9.3,123.72,123.72,0,0,1-9,8.7q-30.6,25.8-75.6,29.4c-2,0-4,.1-6,.3a65,65,0,0,1-6.6.3c-3.21,0-6.4-.09-9.6-.3s-6.4-.5-9.6-.9h-3v-45a67.46,67.46,0,0,1-19.2-6,124.14,124.14,0,0,1-16.8-10.2,25.72,25.72,0,0,1-3.6-2.4q-2.4-1.8-5.4-4.2Zm31.8-70.8a80.74,80.74,0,0,0,7.2,7.5q4.19,3.91,7.8,6.9l10.8-11.4a89.12,89.12,0,0,1-14.4-13.8Zm75.6,27.6a23.28,23.28,0,0,0,6.6.3q3.6-.3,7.8-.9,18-3.6,28.2-15a32.67,32.67,0,0,0,7.2-9,99.32,99.32,0,0,0,6-11.4l1.2-3.6,62.4,27a51.55,51.55,0,0,0,2.1-6.6c.6-2.4,1.29-4.8,2.1-7.2a131.47,131.47,0,0,0,3.6-36v-10.5q0-7.5-.3-24t-.3-46.5h-62.4V111h69.6v156.6h13.2V97.19h-94.8v258a121.5,121.5,0,0,1-1.8,22.2q-1.8,9.6-11.4,19.8a37.62,37.62,0,0,1-11.4,8.7,71.75,71.75,0,0,1-13.2,5.1,23.39,23.39,0,0,1-7.5,1.2h-7.5Zm71.4-150.6h55.2V118.19h-55.2Z" transform="translate(-29.26 -89.99)"/><path class="cls-1" d="M323.66,509.49V177h86v-17.5h178V177h16v332.5Zm274.5-6V183h-10.5v57h-172v49.5h107.5v81H415.66v56h176v64h-217V365h35v-69.5h-35V234h35V183h-80v320.5Zm-188.5-214V240h-29v49.5Zm176,195v-52h-176v-62h-29v114ZM582.16,177v-11.5H415.66V177Zm0,57V183H415.66v51Zm-65,131v-69.5H415.66V365Z" transform="translate(-29.26 -89.99)"/><path class="cls-1" d="M721.65,510.49h-54.5v-25h-36V264h36v-65.5h-34.5V160h63q25,0,48.5.25t33.5.25q10.5,0,22.25.25t17.25.75q40.5,3,65.5,19,27,16.5,36,47a31.56,31.56,0,0,1,2,7q1,5,2,11a74,74,0,0,1,.5,9.75v7.25a123.63,123.63,0,0,1-1.75,19,88.71,88.71,0,0,1-5.75,20.5q-8.51,21-23.5,34.5l-2,1.5-13-11.5,2.5-2a74.69,74.69,0,0,0,19-28,89.81,89.81,0,0,0,6-22.5v-.5a50.14,50.14,0,0,0,.5-7v-7q0-.49-.25-4.75c-.17-2.83-.25-5.08-.25-6.75q-1-4-1.75-8.25a35.7,35.7,0,0,0-1.75-6.75q-7.5-25.5-30-39-21-13.5-56.5-16.5-4-.49-19.75-.75t-36.75-.25h-85v17h84q20.5,0,35.5.25t18,.25q28.5,2.5,45.5,13.48,19,12,25,32.93l1.5,4.49a35.84,35.84,0,0,1,.75,4,32.59,32.59,0,0,0,.75,4q0,2,.25,9.48a83,83,0,0,1-.75,14.47v.5a61.19,61.19,0,0,1-4.5,14.47q-5,13-17,23a98.71,98.71,0,0,1-23.5,15l78.5,113.77h-25.5l46,66h-74L741.65,334h-20ZM637.15,270v209.5h30V270Zm249,56.5,4,3.5a84.67,84.67,0,0,0,20-30,110.43,110.43,0,0,0,5.5-19.75,101.15,101.15,0,0,0,2-17.75q0-1-.25-7.25a84.29,84.29,0,0,0-.75-9.25q-1-5.5-2-10c-.67-3-1.17-5.33-1.5-7q-9-28-33.5-43.5-24-15-63-18-9-.49-38.5-1.5h-140v27.5h29v-23H761.9q13.24,0,24,.25t18.75.5q8,.26,10.5.25,36,3,59,17.5,24,14.51,32.5,42,.49.5,1.75,5.75a77.3,77.3,0,0,1,1.75,10.75,54.64,54.64,0,0,1,.75,7c.16,3,.25,4.67.25,5V267a25.43,25.43,0,0,1-1,7v.5a90.39,90.39,0,0,1-6,24,71,71,0,0,1-7.75,15A114,114,0,0,1,886.15,326.49Zm1.5,111h18.5l-77-111.37,4-1q11.5-4,23.75-13.77t16.75-21.77a27.18,27.18,0,0,0,2.25-6.5c.5-2.34,1.08-4.67,1.75-7v-.5a81.28,81.28,0,0,0,1-13.27,51.21,51.21,0,0,0-.5-9.26,14.52,14.52,0,0,1-.5-3.5,8.16,8.16,0,0,0-1-3.51,16,16,0,0,0-1-4.5A52.71,52.71,0,0,0,853.15,212q-16-10-43-12.52-3,0-17.75-.25T757.15,199q-20.51,0-43-.25t-41-.25V264h27V214H751.4q17.74,0,33.25.25t18.5.25q20,1.5,34,10a40.6,40.6,0,0,1,18.5,24.56,18.68,18.68,0,0,1,1.25,5,50.46,50.46,0,0,0,.75,5,37.18,37.18,0,0,1,.5,6,53.47,53.47,0,0,1-2,15.54v.5a52.74,52.74,0,0,1-2,6.52,44.46,44.46,0,0,1-18.25,22.56q-12.75,8-30.25,9ZM673.15,270v209.5h26V328h17V310h-16V270Zm0,234.5h43.5V334h-11v151.5h-32.5Zm187-67h20.5l-86-124.5h10q21-1,30.75-9.75t13.25-17.75c.33-1,.66-1.91,1-2.75s.66-1.75,1-2.75v-.5a64.56,64.56,0,0,0,1.5-14.5c0-.66-.17-2.66-.5-6a38.21,38.21,0,0,0-18-29.5q-11-7.5-31-9-2.51,0-15.75-.25T757.65,220h-51.5v44h15.5v40.5h45.5Zm-154-133h10.5V270h-10.5Zm160.5,199h59.5l-41.5-60h-28L764.15,310h-42.5v18h23Z" transform="translate(-29.26 -89.99)"/><path class="cls-1" d="M962.15,509.49V177h86v-17.5h178V177h16v332.5Zm274.5-6V183h-10.5v57h-172v49.5h107.5v81h-107.5v56h176v64h-217V365h35v-69.5h-35V234h35V183h-80v320.5Zm-188.5-214V240h-29v49.5Zm176,195v-52h-176v-62h-29v114Zm-3.5-307.5v-11.5h-166.5V177Zm0,57V183h-166.5v51Zm-65,131v-69.5h-101.5V365Z" transform="translate(-29.26 -89.99)"/><path class="cls-1" d="M1574.14,315.49l60-97.5V510h-66V336.49l-6.5,10V495h-216v15h-78V177.49l25,41.5V169l162.5,268.5,113-185V205l-83,134.5-18.5-30.5-29,47.5-120.5-196h64.5l85,137.5,84.5-136.5h79.5l-56.5,92.5ZM1339.64,504v-9h-47V230.49l-19-31.5V504Zm228.5-179v-61.5l-113,185.5-156.5-259v38.5l47,78.5v182.5h210.5V345Zm-228.5,164.5v-181l-41-68.5v249.5Zm98-144.5,25.5-41.5-85-137h-50.5Zm47.5-16.5,89-144v58l46-75.5h-66l-84,136.5Zm143,175.5V239l-54,88V504Z" transform="translate(-29.26 -89.99)"/><path class="cls-1" d="M1795.13,510V487.52h-12.5V379.14l-122-198.77h18.5L1666.63,160h298l-19.5,31.5h32l-114,186V510Zm0-28.5V376l33.5-54-13.5-22-31,50.5-101.5-164h-11l117,190.68V481.49Zm-47-301.4,67,108.4,59-96.91h64l16-25.48h-277l8.5,14Zm36,158.9,27.5-44.85-66.5-107.65h-55.5Zm73,165V376l.5-.5,109-178h-25l-110,180v110h-30.5V504Zm-31.5-22.5V376l.5-.5,108.5-178h-57l-59,96.5,17,28-34.5,55.5v104Z" transform="translate(-29.26 -89.99)"/><path class="cls-1" d="M2497.23,271.79l148.2,216h-48l15.6,22.8h-278.4v-22.8h-77.4l-.6-397.2h85.2v13.2H2379v144.6l94.8-104.4H2523l48-53.4h91.2Zm-162.6,209.4v-85.8l-39,42.6V103.79h39v-6h-70.8l.6,383.4Zm0-130.2,37.2-40.8V267l-37.2,40.8V111h-31.8v308.4l31.8-34.8Zm7.2-240v178.2l30-33V111Zm258,392.4-10.8-15.6h-33.6l-123-178.2,46.8-51.6-8.4-12.6L2379,346.19v141.6h-37.2v15.6Zm-228-182.4-30,33v22.8l30-33Zm-30,66.6v93.6h30V354.59Zm37.2-75V336l92.4-102,12.6,18.6,93-101.4h-51Zm0-53.4v43.2l137.4-151.2h-39.6Zm109.2,12-4.8-7.2-41.4,46.2,117,171h25.2l-123-180Zm104.4,210h39.6l-139.8-204-22.2,24.6ZM2574,97.79l-41.4,46.2h60l-104.4,114.6,5.4,7.2,152.4-168Z" transform="translate(-29.26 -89.99)"/><path class="cls-1" d="M2690.62,510l119-282.5h20l13.5-32h26l15-35.5h32l14.5,35.5h18L3081.12,510h-92l-24.5-58.5h-132.5l-23,58.5Zm114.5-6,21-52.5h-65.5l32-75.5h-24l58.5-142.5h-13.5l-114,270.5Zm23-58.5,15-37.5h104l-13.5-32h-134.5l-29.5,69.5Zm-50.5-75.5h17.5l57.5-136.5h-19Zm24,0h129.5l-56-136.5h-16Zm160.5,75.5-13-31.5h-102l-12.5,31.5Zm-95.5-244h-19.5l-11,26h19.5ZM3012.12,408l-85-206.5h-54l-11.5,26h17.5l58.5,142.5h31.5l15.5,38Zm-87.5-212.5-12.5-29.5h-24l-12.5,29.5Zm148,308.5-128-302.5h-11.5l87.5,212.5h-33.5l15.5,37.5h-31.5l21.5,52.5Zm-107.5-128h-25l13,32h25Zm28.5,69.5-13-31.5h-25l13,31.5Z" transform="translate(-29.26 -89.99)"/><path class="cls-1" d="M3342.12,509.49,3181.62,263v246.5h-77.5V180h52.5l-13.5-20.5h70.5l102,157v-157h63V180h37.5v326.5l-37.5-57.5v60.5ZM3175.62,243l169.5,260.5h27.5V440l-51-78.5V434l-161.5-248h-50v317.5h65.5Zm-12-63h47l105,161.5v-14l-105.5-162h-56.5Zm3.5,6,148.5,228v-61.5l-108-166.5Zm154.5,139.5,30.5,47V180h20.5v-14.5h-51Zm0,25,51,78.5V186h-14.5V392l-36.5-55.5Zm57,87.5,31.5,48.5V186h-31.5Z" transform="translate(-29.26 -89.99)"/><path class="cls-1" d="M3788.12,333v2.5q0,36.5-13.75,68a179.14,179.14,0,0,1-37.75,55.5,175.52,175.52,0,0,1-55.5,37.5q-31.5,13.5-68,13.5a170.31,170.31,0,0,1-68-13.75A174.91,174.91,0,0,1,3451.87,403a170.31,170.31,0,0,1-13.75-68,173.48,173.48,0,0,1,27.5-94.5l2-2.5,17,11a172.44,172.44,0,0,1,19-23.5,163.4,163.4,0,0,1,67-39.5l-5.5-19.5,3-.5a166.59,166.59,0,0,1,45-6,176.23,176.23,0,0,1,68.5,14q3.49,1.5,8,3.75t8.75,4.75q4.24,2.51,7.75,4.5a25.58,25.58,0,0,1,4.5,3,7.86,7.86,0,0,0-1,1.25q-.5.75-4,5.75l-7,9.5a166.8,166.8,0,0,1,23,19l1,1a145.5,145.5,0,0,1,22,28l1.5,3-15.5,7.5-1.5-2a132.83,132.83,0,0,0-19.5-25,139.37,139.37,0,0,0-21-17.5l-23,32-2.5-1.5a88.16,88.16,0,0,0-24.5-10.25,109,109,0,0,0-26.5-3.25,98.12,98.12,0,0,0-45.75,11,103.1,103.1,0,0,0-35.75,30.5l13.5,9-1.5,2.5a80.17,80.17,0,0,0-13.5,45,82.91,82.91,0,0,0,23.5,58.25,85.18,85.18,0,0,0,25.75,18,80.06,80.06,0,0,0,31.25,7.25V246.49h3a87,87,0,0,1,34.75,7,93,93,0,0,1,28.5,19,89.44,89.44,0,0,1,1,125.5,91.8,91.8,0,0,1-27.5,19.25,85.4,85.4,0,0,1-33.75,7.75v58a229.22,229.22,0,0,0,29-3.5,143.88,143.88,0,0,0,55.5-24.75,150.25,150.25,0,0,0,41-45.25,146.06,146.06,0,0,0,20-74.5v-2.5Zm-175,171a164,164,0,0,0,65-13,172.42,172.42,0,0,0,53.5-35.5,169.88,169.88,0,0,0,36.5-52.75,163,163,0,0,0,14-64.75h-15a157.88,157.88,0,0,1-5.75,38.75,152.26,152.26,0,0,1-58,82.5A156.9,156.9,0,0,1,3645.62,485a107,107,0,0,1-16,2.75q-8,.75-16.5.75h-3.5V425a85.4,85.4,0,0,1-33.75-7.75,91.7,91.7,0,0,1-27.5-19.25,89.7,89.7,0,0,1-25.25-62.5,87.37,87.37,0,0,1,13-46l-8.5-5.5a101.32,101.32,0,0,0-8.25,91.5,91.62,91.62,0,0,0,21.75,32l2,2.5-37,36-2-2-.5-.5a141.31,141.31,0,0,1-30-42.25,160.93,160.93,0,0,1-14-48.75,156.46,156.46,0,0,1,2.25-50.5,145.86,145.86,0,0,1,19.25-48l-12-7.5q-25,40-25,88.5a164.31,164.31,0,0,0,13.25,65.75,169.83,169.83,0,0,0,90,90A164.31,164.31,0,0,0,3613.12,504Zm-127-246.5a144,144,0,0,0-18,45.5,154.92,154.92,0,0,0-2.5,48,145.82,145.82,0,0,0,12.75,46.25,143.38,143.38,0,0,0,27.75,40.25l28.5-28a99,99,0,0,1-21.25-33,105.83,105.83,0,0,1-7.25-39q0-30,16.5-56.5Zm21.5-28a124.71,124.71,0,0,0-10,11.25q-4.5,5.75-8.5,11.75l36.5,23.5a106.51,106.51,0,0,1,138.5-31l19.5-27.5a139.79,139.79,0,0,0-48-18h-1.5q-3.5-.49-10.5-1t-14.5-.5h-8.25a21.35,21.35,0,0,0-6.75,1,74.76,74.76,0,0,0-16,3l-2.5,1-3.5-11A142.36,142.36,0,0,0,3507.62,229.49Zm-4,214,.5.5,1.5-2.5ZM3613.12,166a168.4,168.4,0,0,0-40.5,5l4,13.5a170.24,170.24,0,0,1,36-4,150.55,150.55,0,0,1,81,23l5.25-7a35.15,35.15,0,0,0,3.25-5Q3662.11,166,3613.12,166Zm77,42a146.9,146.9,0,0,0-77.5-21.5q-8.51,0-17.25.75a87.58,87.58,0,0,0-17.25,3.25l1.5,5a55.67,55.67,0,0,1,6.75-1.5q3.25-.49,6.75-1t7.5-.75q4-.25,8.5-.25,8,0,15,.5t11,1l1.5.5a135.18,135.18,0,0,1,50.5,18.5Zm-74.5,211a80.09,80.09,0,0,0,31.25-7.25,85.38,85.38,0,0,0,25.75-18,82.91,82.91,0,0,0,23.5-58.25,80.6,80.6,0,0,0-6.25-31.75,83.58,83.58,0,0,0-17.25-26,85.38,85.38,0,0,0-25.75-18,87.22,87.22,0,0,0-31.25-7.75Zm101-190a141,141,0,0,0-21.5-17.5l-3,4.5a141,141,0,0,1,21.5,17.5,119.88,119.88,0,0,1,19,24l5-2.5a90.78,90.78,0,0,0-9.25-13.25q-5.25-6.25-10.75-12.25Z" transform="translate(-29.26 -89.99)"/><path class="cls-1" d="M4003.11,510h-85l38-94-6-14-31,78h-2a2.94,2.94,0,0,1-2.5-1.5q-1-1.5-5-11.5l-103-256.5h67l-20.5-50.5h212.5l-10.5,25.5h60.5l-67,166h18Zm-188-293.5q3,7.5,10.75,26.5t17.75,44q10,25,21.25,53t21.5,53.5q10.24,25.5,18.5,45.75T3917.11,469l30-75-71.5-177.5Zm64.5-6h24l1,2,57.5,144,69-171h18l7.5-19.5h-194.5Zm2.5,6,68,170,9-22.5-59.5-147.5Zm44.5,287.5h72.5l59-146.5h-12l-57,141.5-30-75Zm27-110,5.5,14.5,9-22.5-6-14Zm8.5,22,27,67,50.5-125.5h-23.5l-30,74-15-37.5Zm3.5-52,5.5,14.5,75.5-187h-11.5Zm8.5,22,12,29.5,26-64h30l64.5-160h-53.5Z" transform="translate(-29.26 -89.99)"/><path class="cls-1" d="M4312.11,293a404.06,404.06,0,0,1,51.75,14.25q23.25,8.25,40,20.5a84.51,84.51,0,0,1,25.75,29.75q9,17.51,9,42v.5a118.51,118.51,0,0,1-1.5,18.5,106.67,106.67,0,0,1-4,17l-23-5q-9.5,29.51-38,45.75t-71,16.25h-1.5v19q-47.51-1-88-15.5t-70.5-42l27.5-35.5a193.68,193.68,0,0,0,59.75,35.75,211.39,211.39,0,0,0,68.75,13.25h4q33,0,54.75-12.5t27.25-36.5l23,5a94.88,94.88,0,0,0,2.5-21v-1q0-18.49-7.25-31.75A67.31,67.31,0,0,0,4380.61,347q-13.5-9.49-33-16.25a410.68,410.68,0,0,0-44-12.25q-20-4.5-34.5-8.75t-23.75-10.25a39.88,39.88,0,0,1-13.75-14.25q-4.5-8.25-4.5-19.75v-1a44,44,0,0,1,3-16.5l-37-15.5q-8.51,16-8.5,36.5v.5q0,19,6.75,32.25a63.15,63.15,0,0,0,20,22.75q13.24,9.5,33,16.25a455,455,0,0,0,46.25,12.75q24,5.51,38.75,11t23,12q8.25,6.5,11,13.75a44.19,44.19,0,0,1,2.75,15.75v4a31.1,31.1,0,0,1-1,7.5q-4,17.51-20.75,27t-43.25,9.5c-.67,0-1.84.09-3.5.25s-2.84.25-3.5.25V429h7q32.5,0,35-17.5v-3a15.9,15.9,0,0,0-2-8q-2-3.49-7.75-6.75a94.74,94.74,0,0,0-16.5-6.75q-10.76-3.49-27.75-7.5-25-6-48.25-13.25A150.9,150.9,0,0,1,4193.11,347a92.5,92.5,0,0,1-28-30q-10.5-18-10.5-45v-1q0-29.5,13.5-53,16-27,46.75-41.75t71.25-14.75q42.49,0,77.75,11.5a188.43,188.43,0,0,1,63.25,35l-35,53.5a213.38,213.38,0,0,0-51-26.75,158.07,158.07,0,0,0-54-9.75q-17,0-29.5,5t-19,15l20,8.5a19.62,19.62,0,0,0-1.5,6.5v3.5a17.22,17.22,0,0,0,2,8.25q2,3.75,8,7a103,103,0,0,0,16.75,6.75Q4294.6,289,4312.11,293Zm-11,193.5q40.5,0,67.25-15t35.75-42.5l-17-3.5q-7,23-29.5,35.5t-56.5,12.5a15.08,15.08,0,0,1-4.5-.5,207.9,207.9,0,0,1-68-12,194.18,194.18,0,0,1-59-34l-20.5,26a209.65,209.65,0,0,0,65.5,38q37,13.5,79.5,14.5V487a4,4,0,0,0,1.25-.25,5.59,5.59,0,0,1,1.75-.25Zm-68-244q7-11.5,21-17.5t33-6a165.28,165.28,0,0,1,53,8.75,193,193,0,0,1,50,25.75l29-44q-53-42-133-42-39,0-68.5,14t-44,39.5q-13,21.5-13,50v1q0,25.5,9.75,42.25a84.83,84.83,0,0,0,26.5,28,150.4,150.4,0,0,0,39,18.25q22.24,7,47.75,13,16.5,4,27.75,7.5a77.7,77.7,0,0,1,18,7.75q6.75,4.25,9.75,9a19.72,19.72,0,0,1,3,10.75v1a7,7,0,0,1-.5,3q-1,10.5-11.75,16.5t-28.75,6h-1.5v13h1.5q24,0,39.25-8.25t18.75-23.25a12.84,12.84,0,0,0,1-4.75V406a32.32,32.32,0,0,0-3.5-15.5q-3.5-6.49-11.75-12t-21.75-10.25a305.11,305.11,0,0,0-33.5-9.25q-23-5-43.25-11.25a134.66,134.66,0,0,1-35.25-16.25,76.3,76.3,0,0,1-23.75-24.75q-8.75-14.74-8.75-37.25V269a85.4,85.4,0,0,1,2.75-21.25,87.12,87.12,0,0,1,7.25-19.25,15.33,15.33,0,0,1,1-1.75,17.21,17.21,0,0,0,1-1.75l2.5,1Zm199.5,157q0-23-8.75-39.5a83.3,83.3,0,0,0-24.75-28.25q-16-11.74-38.5-19.5a446.68,446.68,0,0,0-50-13.75q-33-7.5-46.25-14.5t-13.25-20.5v-1a20,20,0,0,1,.5-5.5l-16-7a36.47,36.47,0,0,0-3,14.5v1a35.26,35.26,0,0,0,3.5,16q3.49,7,11.75,12.25t22.25,10a318.74,318.74,0,0,0,35,9.25,384.39,384.39,0,0,1,45.5,12.5q20,7,34.25,17.25a70.62,70.62,0,0,1,21.75,24.5q7.5,14.25,7.5,34.25v1q0,6-.5,11.5a63.76,63.76,0,0,1-2,11l17.5,3.5q1.5-6.49,2.5-13.5a106.54,106.54,0,0,0,1-15Z" transform="translate(-29.26 -89.99)"/><path class="cls-1" d="M4664.1,311.49l123.5,180h-40l13,19h-232v-19h-64.5l-.5-331h71v11h31V292l79-87h41l40-44.5h76ZM4528.6,486v-71.5L4496.1,450V171.49h32.5v-5h-59l.5,319.5Zm0-108.5,31-34v-36l-31,34v-164h-26.5v257l26.5-29Zm6-200V326l25-27.5v-121Zm215,327-9-13h-28L4610.1,343l39-43-7-10.5-76.5,84v118h-31v13Zm-190-152-25,27.5v19l25-27.5Zm-25,55.5v78h25V380.49Zm31-62.5V365l77-85,10.5,15.5,77.5-84.5h-42.5Zm0-44.5v36l114.5-126h-33Zm91,10-4-6-34.5,38.5L4715.6,486h21L4634.1,336Zm87,175h33L4660.1,316l-18.5,20.5Zm-15.5-319.5L4693.6,205h50l-87,95.5,4.5,6,127-140Z" transform="translate(-29.26 -89.99)"/><path class="cls-1" d="M4965.6,510V487.52h-12.5V379.14l-122-198.77h18.5L4837.1,160h298l-19.5,31.5h32l-114,186V510Zm0-28.5V376l33.5-54-13.5-22-31,50.5-101.5-164h-11l117,190.68V481.49Zm-47-301.4,67,108.4,59-96.91h64l16-25.48h-277l8.5,14Zm36,158.9,27.5-44.85-66.5-107.65h-55.5Zm73,165V376l.5-.5,109-178h-25l-110,180v110h-30.5V504Zm-31.5-22.5V376l.5-.5,108.5-178h-57l-59,96.5,17,28-34.5,55.5v104Z" transform="translate(-29.26 -89.99)"/></svg>