<svg id="Layer_1" data-name="Layer 1" xmlns="http://www.w3.org/2000/svg" viewBox="0 0 584.99 350.5"><defs><style>.cls-1{fill:#ee0979;}</style></defs><title>placeholder</title><path class="cls-1" d="M109,350q-6,0-13-.25t-9.5-.25a139.29,139.29,0,0,1-66-23.5q-4.5-3-9.25-6.5T2,312l-2-2,43-43.5q-4-3.49-8-7.25A49.25,49.25,0,0,1,28.5,252L27,250l18-17,2,2a119.75,119.75,0,0,0,16,16l2,2L52,266q5,4.5,6.5,5a91,91,0,0,0,14.25,8.75A47.55,47.55,0,0,0,88,284h3v37.5a125.45,125.45,0,0,0,22.5,0,121.85,121.85,0,0,0,32.75-7.25A87.13,87.13,0,0,0,173,298.5a54.72,54.72,0,0,0,7.25-6.5,91.85,91.85,0,0,0,6.25-7.5,91.68,91.68,0,0,0,9-16l-46.5-20a20.52,20.52,0,0,1-2.25,4.25,28,28,0,0,0-2.25,3.75,51.09,51.09,0,0,1-3,4.5,37.37,37.37,0,0,1-3.5,4q-12,11.51-27,13.5a54.27,54.27,0,0,1-8.25,1.25A40,40,0,0,1,95,279.5H92L91.5,262l3.5.5a53,53,0,0,0,14-1,43.88,43.88,0,0,0,9.25-3.25A20.42,20.42,0,0,0,126,252q7-7.5,8.25-14.5A95.54,95.54,0,0,0,135.5,221V0h91V154h-17v67a148.35,148.35,0,0,1-2.5,32q-1,3.5-2,6.5l-2,6L227.5,276l-1.5,2.5a14.84,14.84,0,0,1-1.25,3.25q-1.25,2.75-3.25,6.5t-4.5,7.5l-4.5,6.75q-4,5-8,9.75a64.08,64.08,0,0,1-9,8.75q-31.5,26-80,29ZM8.5,309.5a92.74,92.74,0,0,0,15.5,12,134.89,134.89,0,0,0,63,22,46.1,46.1,0,0,0,8.75.5H115.5a137.12,137.12,0,0,0,42-8.25,116.4,116.4,0,0,0,34-19.25q4.5-4,8.5-8.25t8-9.25q2.5-4,6-10t5.5-10L201,271q-2.51,4.5-4.75,8.75A62.09,62.09,0,0,1,191,288a94.31,94.31,0,0,1-6.5,7.75A103.21,103.21,0,0,1,177,303q-25.5,21.5-63,24.5a50,50,0,0,0-5,.25,54.08,54.08,0,0,1-5.5.25q-4,0-8-.25c-2.66-.17-5.34-.41-8-.75H85V289.5a56.2,56.2,0,0,1-16-5A103.41,103.41,0,0,1,55,276a21.45,21.45,0,0,1-3-2q-2-1.5-4.5-3.5Zm26.5-59a67.33,67.33,0,0,0,6,6.25q3.49,3.26,6.5,5.75l9-9.5a74.29,74.29,0,0,1-12-11.5Zm63,23a19.4,19.4,0,0,0,5.5.25q3-.25,6.5-.75,15-3,23.5-12.5a27.23,27.23,0,0,0,6-7.5,82.83,82.83,0,0,0,5-9.5l1-3,52,22.5a43,43,0,0,0,1.75-5.5q.75-3,1.75-6a109.56,109.56,0,0,0,3-30v-8.75q0-6.25-.25-20T203.5,154h-52V17.5h58V148h11V6h-79V221a101.25,101.25,0,0,1-1.5,18.5q-1.5,8-9.5,16.5a31.33,31.33,0,0,1-9.5,7.25,59.78,59.78,0,0,1-11,4.25,19.5,19.5,0,0,1-6.25,1H97.5ZM157.5,148h46V23.5h-46Z"/><path class="cls-1" d="M447.49,151.5,571,331.5H531l13,19H312v-19h-64.5L247,.5h71v11h31V132l79-87h41L509,.5h76ZM312,326V254.5L279.49,290V11.5H312v-5H253l.5,319.5Zm0-108.5,31-34v-36l-31,34V17.5h-26.5v257l26.5-29Zm6-200V166l25-27.5V17.5Zm215,327-9-13H496L393.49,183l39-43-7-10.5-76.5,84v118H318v13Zm-190-152L318,220v19l25-27.5ZM318,248v78h25V220.5Zm31-62.5V205l77-85,10.5,15.5L514,51h-42.5Zm0-44.5v36L463.49,51h-33Zm91,10-4-6-34.5,38.5L499,326h21L417.49,176Zm87,175h33L443.49,156,425,176.5ZM511.49,6.5,477,45h50l-87,95.5,4.5,6,127-140Z"/></svg>