<svg id="Layer_1" data-name="Layer 1" xmlns="http://www.w3.org/2000/svg" viewBox="0 0 585 350.5"><defs><style>.cls-1{fill:#fff;}</style></defs><title>corner_icon</title><path class="cls-1" d="M120.34,425q-6,0-13-.25t-9.5-.25a139.29,139.29,0,0,1-66-23.5q-4.5-3-9.25-6.5T13.34,387l-2-2,43-43.5q-4-3.49-8-7.25a49.25,49.25,0,0,1-6.5-7.25l-1.5-2,18-17,2,2a119.75,119.75,0,0,0,16,16l2,2-13,13q5,4.5,6.5,5a91,91,0,0,0,14.25,8.75A47.55,47.55,0,0,0,99.34,359h3v37.5a125.45,125.45,0,0,0,22.5,0,121.85,121.85,0,0,0,32.75-7.25,87.13,87.13,0,0,0,26.75-15.75,54.72,54.72,0,0,0,7.25-6.5,91.85,91.85,0,0,0,6.25-7.5,91.68,91.68,0,0,0,9-16l-46.5-20a20.52,20.52,0,0,1-2.25,4.25,28,28,0,0,0-2.25,3.75,51.09,51.09,0,0,1-3,4.5,37.37,37.37,0,0,1-3.5,4q-12,11.51-27,13.5a54.27,54.27,0,0,1-8.25,1.25,40,40,0,0,1-7.75-.25h-3l-.5-17.5,3.5.5a53,53,0,0,0,14-1,43.88,43.88,0,0,0,9.25-3.25,20.42,20.42,0,0,0,7.75-6.25q7-7.5,8.25-14.5a95.54,95.54,0,0,0,1.25-16.5V75h91V229h-17v67a148.35,148.35,0,0,1-2.5,32q-1,3.5-2,6.5t-2,6l24.5,10.5-1.5,2.5a14.84,14.84,0,0,1-1.25,3.25q-1.25,2.75-3.25,6.5t-4.5,7.5l-4.5,6.75q-4,5-8,9.75a64.08,64.08,0,0,1-9,8.75q-31.5,26-80,29ZM19.84,384.5a92.74,92.74,0,0,0,15.5,12,134.89,134.89,0,0,0,63,22,46.1,46.1,0,0,0,8.75.5h19.75a137.12,137.12,0,0,0,42-8.25,116.4,116.4,0,0,0,34-19.25q4.5-4,8.5-8.25t8-9.25q2.5-4,6-10t5.5-10l-18.5-8q-2.51,4.5-4.75,8.75a62.09,62.09,0,0,1-5.25,8.25,94.31,94.31,0,0,1-6.5,7.75,103.21,103.21,0,0,1-7.5,7.25q-25.5,21.5-63,24.5-2.51,0-5,.25a54.08,54.08,0,0,1-5.5.25c-2.67,0-5.34-.08-8-.25s-5.34-.41-8-.75h-2.5V364.5a56.2,56.2,0,0,1-16-5,103.41,103.41,0,0,1-14-8.5,21.45,21.45,0,0,1-3-2q-2-1.5-4.5-3.5Zm26.5-59a67.33,67.33,0,0,0,6,6.25q3.49,3.26,6.5,5.75l9-9.5a74.29,74.29,0,0,1-12-11.5Zm63,23a19.4,19.4,0,0,0,5.5.25q3-.25,6.5-.75,15-3,23.5-12.5a27.23,27.23,0,0,0,6-7.5,82.83,82.83,0,0,0,5-9.5l1-3,52,22.5a43,43,0,0,0,1.75-5.5c.5-2,1.08-4,1.75-6a109.56,109.56,0,0,0,3-30v-8.75q0-6.25-.25-20T214.84,229h-52V92.5h58V223h11V81h-79V296a101.25,101.25,0,0,1-1.5,18.5q-1.5,8-9.5,16.5a31.33,31.33,0,0,1-9.5,7.25,59.78,59.78,0,0,1-11,4.25,19.5,19.5,0,0,1-6.25,1h-6.25ZM168.84,223h46V98.5h-46Z" transform="translate(-11.34 -75)"/><path class="cls-1" d="M458.83,226.5l123.5,180h-40l13,19h-232v-19h-64.5l-.5-331h71v11h31V207l79-87h41l40-44.5h76ZM323.33,401V329.5L290.83,365V86.5h32.5v-5h-59l.5,319.5Zm0-108.5,31-34v-36l-31,34V92.5h-26.5v257l26.5-29Zm6-200V241l25-27.5V92.5Zm215,327-9-13h-28L404.83,258l39-43-7-10.5-76.5,84v118h-31v13Zm-190-152-25,27.5v19l25-27.5Zm-25,55.5v78h25V295.5Zm31-62.5V280l77-85,10.5,15.5,77.5-84.5h-42.5Zm0-44.5v36l114.5-126h-33Zm91,10-4-6-34.5,38.5L510.33,401h21L428.83,251Zm87,175h33L454.83,231l-18.5,20.5ZM522.83,81.5,488.33,120h50l-87,95.5,4.5,6,127-140Z" transform="translate(-11.34 -75)"/></svg>