<?xml version="1.0" encoding="utf-8"?>
<!-- Generator: Adobe Illustrator 21.1.0, SVG Export Plug-In . SVG Version: 6.00 Build 0)  -->
<svg version="1.1" id="Layer_1" xmlns="http://www.w3.org/2000/svg" xmlns:xlink="http://www.w3.org/1999/xlink" x="0px" y="0px"
	 viewBox="0 0 1000 1000" style="enable-background:new 0 0 1000 1000;" xml:space="preserve">
<style type="text/css">
	.st0{fill:none;stroke:url(#SVGID_1_);stroke-width:10.8;stroke-miterlimit:10;}
	.st1{fill:none;stroke:url(#SVGID_2_);stroke-width:10.8;stroke-miterlimit:10;}
</style>
<linearGradient id="SVGID_1_" gradientUnits="userSpaceOnUse" x1="4.7422" y1="488.7202" x2="394.9669" y2="488.7202">
	<stop  offset="0" style="stop-color:#EE0979"/>
	<stop  offset="1" style="stop-color:#F6393D"/>
</linearGradient>
<path class="st0" d="M191.9,777c-6.6,0-13.7-0.1-21.4-0.4c-7.7-0.3-12.9-0.4-15.7-0.4c-40.1-3.8-76.3-16.7-108.7-38.7
	c-4.9-3.3-10-6.9-15.2-10.7c-5.2-3.8-10.3-8-15.2-12.4l-3.3-3.3l70.8-71.7c-4.4-3.8-8.8-7.8-13.2-11.9c-4.4-4.1-8-8.1-10.7-11.9
	l-2.5-3.3l29.7-28l3.3,3.3c8.8,10.4,17.6,19.2,26.4,26.4l3.3,3.3L98,638.6c5.5,4.9,9.1,7.7,10.7,8.2c8.2,6,16.1,10.9,23.5,14.4
	c7.4,3.6,15.8,5.9,25.1,7h4.9v61.8c13.7,1.1,26.1,1.1,37.1,0c19.2-1.6,37.2-5.6,54-11.9c16.7-6.3,31.4-15,44.1-25.9
	c4.4-3.3,8.4-6.9,11.9-10.7c3.6-3.8,7-8,10.3-12.4c5.5-7.7,10.4-16.5,14.8-26.4l-76.6-32.9c-1.1,2.8-2.3,5.1-3.7,7
	c-1.4,1.9-2.6,4-3.7,6.2c-1.6,2.8-3.3,5.2-4.9,7.4c-1.6,2.2-3.6,4.4-5.8,6.6c-13.2,12.6-28,20.1-44.5,22.2
	c-4.9,1.1-9.5,1.8-13.6,2.1c-4.1,0.3-8.4,0.1-12.8-0.4h-4.9l-0.8-28.8l5.8,0.8c6.6,0.6,14.3,0,23.1-1.6c4.9-1.1,10-2.9,15.2-5.4
	c5.2-2.5,9.5-5.9,12.8-10.3c7.7-8.2,12.2-16.2,13.6-23.9c1.4-7.7,2.1-16.7,2.1-27.2V200.4h149.9v253.7h-28v110.4
	c0.5,17.6-0.8,35.2-4.1,52.7c-1.1,3.8-2.2,7.4-3.3,10.7c-1.1,3.3-2.2,6.6-3.3,9.9l40.4,17.3l-2.5,4.1c0,0.6-0.7,2.3-2.1,5.4
	c-1.4,3-3.2,6.6-5.4,10.7c-2.2,4.1-4.7,8.2-7.4,12.4c-2.8,4.1-5.2,7.8-7.4,11.1c-4.4,5.5-8.8,10.8-13.2,16.1
	c-4.4,5.2-9.3,10-14.8,14.4c-34.6,28.6-78.5,44.5-131.8,47.8H191.9z M26.4,710.3c8.8,8.2,17.3,14.8,25.5,19.8
	c31.8,20.9,66.4,32.9,103.8,36.2c2.2,0.6,7,0.8,14.4,0.8s14.7,0,21.8,0h10.7c24.7-1.1,47.8-5.6,69.2-13.6c21.4-8,40.1-18.5,56-31.7
	c4.9-4.4,9.6-8.9,14-13.6c4.4-4.7,8.8-9.7,13.2-15.2c2.7-4.4,6-9.9,9.9-16.5c3.8-6.6,6.9-12.1,9.1-16.5l-30.5-13.2
	c-2.8,4.9-5.4,9.8-7.8,14.4c-2.5,4.7-5.4,9.2-8.6,13.6c-3.3,4.4-6.9,8.6-10.7,12.8c-3.8,4.1-8,8.1-12.4,11.9
	c-28,23.6-62.6,37.1-103.8,40.4c-2.8,0-5.5,0.1-8.2,0.4c-2.8,0.3-5.8,0.4-9.1,0.4c-4.4,0-8.8-0.1-13.2-0.4
	c-4.4-0.3-8.8-0.7-13.2-1.2h-4.1v-61.8c-9.9-1.6-18.7-4.4-26.4-8.2c-7.7-3.8-15.4-8.5-23.1-14c-1.1-0.5-2.8-1.6-4.9-3.3
	c-2.2-1.6-4.7-3.6-7.4-5.8L26.4,710.3z M70,613.1c2.7,3.3,6,6.7,9.9,10.3c3.8,3.6,7.4,6.7,10.7,9.5l14.8-15.7
	c-6-4.4-12.6-10.7-19.8-18.9L70,613.1z M173.8,651c2.7,0.6,5.8,0.7,9.1,0.4c3.3-0.3,6.9-0.7,10.7-1.2c16.5-3.3,29.4-10.2,38.7-20.6
	c3.8-3.3,7.1-7.4,9.9-12.4c2.7-4.4,5.5-9.6,8.2-15.7l1.6-4.9l85.7,37.1c1.1-2.7,2.1-5.8,2.9-9.1s1.8-6.6,2.9-9.9
	c3.8-15.4,5.5-31.8,4.9-49.4c0-2.7,0-7.5,0-14.4c0-6.9-0.1-17.8-0.4-33c-0.3-15.1-0.4-36.4-0.4-63.8h-85.7V229.2h95.6v215h18.1
	V210.3H245.5v354.2c0,11.5-0.8,21.7-2.5,30.5c-1.6,8.8-6.9,17.9-15.7,27.2c-4.4,4.9-9.6,8.9-15.7,11.9c-6,3-12.1,5.4-18.1,7
	c-3.3,1.1-6.7,1.6-10.3,1.6c-3.6,0-7,0-10.3,0L173.8,651z M271.8,444.2h75.8V239.1h-75.8V444.2z"/>
<linearGradient id="SVGID_2_" gradientUnits="userSpaceOnUse" x1="413.8658" y1="489.5437" x2="988.3358" y2="489.5437">
	<stop  offset="0" style="stop-color:#F6393D"/>
	<stop  offset="4.515469e-03" style="stop-color:#F6393C"/>
	<stop  offset="0.2422" style="stop-color:#FA4F22"/>
	<stop  offset="0.4846" style="stop-color:#FD5E0F"/>
	<stop  offset="0.7341" style="stop-color:#FE6704"/>
	<stop  offset="1" style="stop-color:#FF6A00"/>
</linearGradient>
<path class="st1" d="M749.6,450l203.5,296.5h-65.9l21.4,31.3H526.4v-31.3H420.1l-0.8-545.3h117v18.1h51.1v198.5l130.1-143.3H785
	l65.9-73.3h125.2L749.6,450z M526.4,737.5V619.7l-53.5,58.5V219.4h53.5v-8.2h-97.2l0.8,526.4H526.4z M526.4,558.7l51.1-56v-59.3
	l-51.1,56V229.2h-43.7v423.4l43.7-47.8V558.7z M536.2,229.2v244.6l41.2-45.3V229.2H536.2z M890.4,768l-14.8-21.4h-46.1L660.6,501.9
	l64.3-70.8l-11.5-17.3l-126,138.4v194.4h-4.9h-46.1V768H890.4z M577.4,517.6l-41.2,45.3v31.3l41.2-45.3V517.6z M536.2,609v128.5
	h41.2V563.7L536.2,609z M587.3,506v32.1l126.9-140l17.3,25.5l127.7-139.2h-70L587.3,506z M587.3,432.7V492l188.6-207.6h-54.4
	L587.3,432.7z M737.2,449.2l-6.6-9.9l-56.8,63.4l160.6,234.8H869L700.2,490.4L737.2,449.2z M880.6,737.5h54.4L743,457.4l-30.5,33.8
	L880.6,737.5z M855,211.1l-56.8,63.4h82.4L737.2,431.9l7.4,9.9l209.2-230.6H855z"/>
</svg>
