<?xml version="1.0" encoding="utf-8"?>
<!-- Generator: Adobe Illustrator 21.1.0, SVG Export Plug-In . SVG Version: 6.00 Build 0)  -->
<svg version="1.1" id="Layer_1" xmlns="http://www.w3.org/2000/svg" xmlns:xlink="http://www.w3.org/1999/xlink" x="0px" y="0px"
	 viewBox="0 0 585 350.5" style="enable-background:new 0 0 585 350.5;" xml:space="preserve">
<style type="text/css">
	.st0{fill:url(#SVGID_1_);}
	.st1{fill:url(#SVGID_2_);}
</style>
<linearGradient id="SVGID_1_" gradientUnits="userSpaceOnUse" x1="0" y1="175" x2="227.5" y2="175">
	<stop  offset="0" style="stop-color:#EE0979"/>
	<stop  offset="1" style="stop-color:#F6393D"/>
</linearGradient>
<path class="st0" d="M109,350c-4,0-8.3-0.1-13-0.3c-4.7-0.2-7.8-0.3-9.5-0.3c-23.6-2.1-46.4-10.2-66-23.5c-3-2-6.1-4.2-9.3-6.5
	S5,314.7,2,312l-2-2l43-43.5c-2.7-2.3-5.3-4.7-8-7.3c-2.4-2.2-4.6-4.6-6.5-7.3l-1.5-2l18-17l2,2c4.8,5.8,10.2,11.2,16,16l2,2l-13,13
	c3.3,3,5.5,4.7,6.5,5c4.5,3.3,9.2,6.3,14.3,8.8c4.8,2.3,10,3.7,15.3,4.3h3v37.5c7.5,0.7,15,0.7,22.5,0c11.2-0.9,22.2-3.3,32.8-7.3
	c9.8-3.6,18.8-8.9,26.8-15.8c2.6-1.9,5-4.1,7.3-6.5c2.2-2.4,4.3-4.9,6.3-7.5c3.5-5,6.5-10.4,9-16l-46.5-20c-0.6,1.5-1.3,2.9-2.3,4.3
	c-0.8,1.2-1.6,2.4-2.3,3.8c-0.9,1.6-1.9,3.1-3,4.5c-1.1,1.4-2.2,2.8-3.5,4c-8,7.7-17,12.2-27,13.5c-2.7,0.6-5.5,1-8.3,1.3
	c-2.6,0.2-5.2,0.1-7.8-0.3h-3L91.5,262l3.5,0.5c4.7,0.3,9.4,0,14-1c3.2-0.7,6.3-1.8,9.3-3.3c3.1-1.4,5.7-3.6,7.8-6.3
	c4.7-5,7.4-9.8,8.3-14.5c0.9-5.5,1.3-11,1.3-16.5V0h91v154h-17v67c0.3,10.7-0.5,21.5-2.5,32c-0.7,2.3-1.3,4.5-2,6.5
	c-0.7,2-1.3,4-2,6l24.5,10.5l-1.5,2.5c-0.3,1.1-0.7,2.2-1.3,3.3c-0.8,1.8-1.9,4-3.3,6.5c-1.3,2.5-2.8,5-4.5,7.5l-4.5,6.8
	c-2.7,3.3-5.3,6.6-8,9.8c-2.7,3.2-5.7,6.1-9,8.8c-21,17.3-47.7,27-80,29H109z M8.5,309.5c4.7,4.5,9.9,8.6,15.5,12
	c18.8,12.5,40.5,20.1,63,22c2.9,0.4,5.8,0.6,8.8,0.5h19.8c14.3-0.5,28.5-3.3,42-8.3c12.3-4.5,23.8-11,34-19.3c3-2.7,5.8-5.4,8.5-8.3
	c2.7-2.8,5.3-5.9,8-9.3c1.7-2.7,3.7-6,6-10c2.3-4,4.2-7.3,5.5-10l-18.5-8c-1.7,3-3.3,5.9-4.8,8.8c-1.5,2.9-3.3,5.6-5.3,8.3
	c-2,2.7-4.2,5.3-6.5,7.8c-2.4,2.5-4.9,5-7.5,7.3c-17,14.3-38,22.5-63,24.5c-1.7,0-3.3,0.1-5,0.3c-1.8,0.2-3.7,0.3-5.5,0.3
	c-2.7,0-5.3-0.1-8-0.3s-5.3-0.4-8-0.8H85v-37.5c-5.6-0.9-10.9-2.5-16-5c-4.9-2.5-9.6-5.3-14-8.5c-1.1-0.6-2.1-1.3-3-2
	c-1.3-1-2.8-2.2-4.5-3.5L8.5,309.5z M35,250.5c1.9,2.2,3.9,4.3,6,6.3c2.3,2.2,4.5,4.1,6.5,5.8l9-9.5c-4.4-3.4-8.4-7.2-12-11.5
	L35,250.5z M98,273.5c1.8,0.3,3.7,0.4,5.5,0.3c2-0.2,4.2-0.4,6.5-0.8c10-2,17.8-6.2,23.5-12.5c2.4-2.1,4.5-4.7,6-7.5
	c1.9-3.1,3.5-6.2,5-9.5l1-3l52,22.5c0.7-1.8,1.3-3.6,1.8-5.5c0.5-2,1.1-4,1.8-6c2.4-9.8,3.4-19.9,3-30v-8.8c0-4.2-0.1-10.8-0.3-20
	c-0.2-9.2-0.2-22.1-0.3-38.8h-52V17.5h58V148h11V6h-79v215c0.1,6.2-0.4,12.4-1.5,18.5c-1,5.3-4.2,10.8-9.5,16.5
	c-2.7,3-5.9,5.5-9.5,7.3c-3.5,1.8-7.2,3.2-11,4.3c-2,0.7-4.1,1-6.3,1h-6.3L98,273.5z M157.5,148h46V23.5h-46V148z"/>
<linearGradient id="SVGID_2_" gradientUnits="userSpaceOnUse" x1="246.99" y1="175.5" x2="584.9899" y2="175.5">
	<stop  offset="0" style="stop-color:#F6393D"/>
	<stop  offset="1" style="stop-color:#FF6A00"/>
</linearGradient>
<path class="st1" d="M447.5,151.5l123.5,180h-40l13,19H312v-19h-64.5L247,0.5h71v11h31V132l79-87h41l40-44.5h76L447.5,151.5z
	 M312,326v-71.5L279.5,290V11.5H312v-5h-59l0.5,319.5H312z M312,217.5l31-34v-36l-31,34v-164h-26.5v257l26.5-29V217.5z M318,17.5
	V166l25-27.5v-121H318z M533,344.5l-9-13h-28L393.5,183l39-43l-7-10.5l-76.5,84v118h-31v13H533z M343,192.5L318,220v19l25-27.5
	V192.5z M318,248v78h25V220.5L318,248z M349,185.5V205l77-85l10.5,15.5L514,51h-42.5L349,185.5z M349,141v36L463.5,51h-33L349,141z
	 M440,151l-4-6l-34.5,38.5L499,326h21L417.5,176L440,151z M527,326h33L443.5,156L425,176.5L527,326z M511.5,6.5L477,45h50l-87,95.5
	l4.5,6l127-140H511.5z"/>
</svg>
