<?xml version="1.0" encoding="utf-8"?>
<!-- Generator: Adobe Illustrator 21.1.0, SVG Export Plug-In . SVG Version: 6.00 Build 0)  -->
<svg version="1.1"
	 id="svg2" inkscape:version="0.91 r13725" sodipodi:docname="elephant head.svg" xmlns:cc="http://creativecommons.org/ns#" xmlns:dc="http://purl.org/dc/elements/1.1/" xmlns:inkscape="http://www.inkscape.org/namespaces/inkscape" xmlns:rdf="http://www.w3.org/1999/02/22-rdf-syntax-ns#" xmlns:sodipodi="http://sodipodi.sourceforge.net/DTD/sodipodi-0.dtd" xmlns:svg="http://www.w3.org/2000/svg"
	 xmlns="http://www.w3.org/2000/svg" xmlns:xlink="http://www.w3.org/1999/xlink" x="0px" y="0px" viewBox="0 0 402 395"
	 style="enable-background:new 0 0 402 395;" xml:space="preserve">
<style type="text/css">
	.st0{fill:none;stroke:url(#SVGID_1_);stroke-width:3.6;stroke-miterlimit:10;}
	.st1{fill:none;stroke:url(#SVGID_2_);stroke-width:3.6;stroke-miterlimit:10;}
	.st2{fill:none;stroke:url(#SVGID_3_);stroke-width:3.6;stroke-miterlimit:10;}
	.st3{fill:none;stroke:url(#SVGID_4_);stroke-width:3.6;stroke-miterlimit:10;}
	.st4{fill:none;stroke:url(#SVGID_5_);stroke-width:3.6;stroke-miterlimit:10;}
	.st5{fill:none;stroke:url(#SVGID_6_);stroke-width:3.6;stroke-miterlimit:10;}
	.st6{fill:#FFFFFF;stroke:url(#SVGID_7_);stroke-width:3.6;stroke-miterlimit:10;}
	.st7{fill:#FFFFFF;stroke:url(#SVGID_8_);stroke-width:3.6;stroke-miterlimit:10;}
	.st8{fill:#FFFFFF;stroke:url(#SVGID_9_);stroke-width:3.6;stroke-miterlimit:10;}
	.st9{fill:url(#SVGID_10_);stroke:url(#SVGID_11_);stroke-width:3.6;stroke-miterlimit:10;}
	.st10{fill:#FFFFFF;stroke:url(#SVGID_12_);stroke-width:3.6;stroke-miterlimit:10;}
	.st11{fill:#FFFFFF;stroke:url(#SVGID_13_);stroke-width:3.6;stroke-miterlimit:10;}
	.st12{fill:url(#SVGID_14_);stroke:url(#SVGID_15_);stroke-width:3.6;stroke-miterlimit:10;}
	.st13{fill:#FFFFFF;stroke:url(#SVGID_16_);stroke-width:3.6;stroke-miterlimit:10;}
	.st14{fill:#FFFFFF;stroke:url(#SVGID_17_);stroke-width:3.6;stroke-miterlimit:10;}
	.st15{fill:#FFFFFF;stroke:url(#SVGID_18_);stroke-width:3.6;stroke-miterlimit:10;}
	.st16{fill:#FFFFFF;stroke:url(#SVGID_19_);stroke-width:3.6;stroke-miterlimit:10;}
	.st17{fill:#FFFFFF;stroke:url(#SVGID_20_);stroke-width:3.6;stroke-miterlimit:10;}
	.st18{fill:url(#SVGID_21_);stroke:url(#SVGID_22_);stroke-width:3.6;stroke-miterlimit:10;}
	.st19{fill:url(#SVGID_23_);stroke:url(#SVGID_24_);stroke-width:3.6;stroke-miterlimit:10;}
	.st20{fill:none;stroke:url(#SVGID_25_);stroke-width:3.6;stroke-miterlimit:10;}
	.st21{fill:none;stroke:url(#SVGID_26_);stroke-width:3.6;stroke-miterlimit:10;}
	.st22{fill:none;stroke:url(#SVGID_27_);stroke-width:3.6;stroke-miterlimit:10;}
	.st23{fill:none;stroke:url(#SVGID_28_);stroke-width:3.6;stroke-miterlimit:10;}
	.st24{fill:none;stroke:url(#SVGID_29_);stroke-width:3.6;stroke-miterlimit:10;}
	.st25{fill:none;stroke:url(#SVGID_30_);stroke-width:3.6;stroke-miterlimit:10;}
	.st26{fill:none;stroke:url(#SVGID_31_);stroke-width:3.6;stroke-miterlimit:10;}
	.st27{fill:none;stroke:url(#SVGID_32_);stroke-width:3.6;stroke-miterlimit:10;}
	.st28{fill:none;stroke:url(#SVGID_33_);stroke-width:3.6;stroke-miterlimit:10;}
	.st29{fill:none;stroke:url(#SVGID_34_);stroke-width:3.6;stroke-miterlimit:10;}
	.st30{fill:none;stroke:url(#SVGID_35_);stroke-width:3.6;stroke-miterlimit:10;}
	.st31{fill:none;stroke:url(#SVGID_36_);stroke-width:3.6;stroke-miterlimit:10;}
	.st32{fill:none;stroke:url(#SVGID_37_);stroke-width:3.6;stroke-miterlimit:10;}
	.st33{fill:none;stroke:url(#SVGID_38_);stroke-width:3.6;stroke-miterlimit:10;}
	.st34{fill:none;stroke:url(#SVGID_39_);stroke-width:3.6;stroke-miterlimit:10;}
	.st35{fill:none;stroke:url(#SVGID_40_);stroke-width:3.6;stroke-miterlimit:10;}
	.st36{fill:none;stroke:url(#SVGID_41_);stroke-width:3.6;stroke-miterlimit:10;}
	.st37{fill:none;stroke:url(#SVGID_42_);stroke-width:3.6;stroke-miterlimit:10;}
	.st38{fill:none;stroke:url(#SVGID_43_);stroke-width:3.6;stroke-miterlimit:10;}
	.st39{fill:none;stroke:url(#SVGID_44_);stroke-width:3.6;stroke-miterlimit:10;}
	.st40{fill:none;stroke:url(#SVGID_45_);stroke-width:3.6;stroke-miterlimit:10;}
	.st41{fill:none;stroke:url(#SVGID_46_);stroke-width:3.6;stroke-miterlimit:10;}
	.st42{fill:none;stroke:url(#SVGID_47_);stroke-width:3.6;stroke-miterlimit:10;}
	.st43{fill:none;stroke:url(#SVGID_48_);stroke-width:3.6;stroke-miterlimit:10;}
	.st44{fill:url(#SVGID_49_);stroke:url(#SVGID_50_);stroke-width:3.6;stroke-miterlimit:10;}
	.st45{fill:url(#SVGID_51_);stroke:url(#SVGID_52_);stroke-width:3.6;stroke-miterlimit:10;}
	.st46{fill:url(#SVGID_53_);stroke:url(#SVGID_54_);stroke-width:3.6;stroke-miterlimit:10;}
	.st47{fill:url(#SVGID_55_);stroke:url(#SVGID_56_);stroke-width:3.6;stroke-miterlimit:10;}
	.st48{fill:#FFFFFF;stroke:url(#SVGID_57_);stroke-width:3.6;stroke-miterlimit:10;}
	.st49{fill:#FFFFFF;stroke:url(#SVGID_58_);stroke-width:3.6;stroke-miterlimit:10;}
	.st50{fill:#FFFFFF;stroke:url(#SVGID_59_);stroke-width:3.6;stroke-miterlimit:10;}
	.st51{fill:#FFFFFF;stroke:url(#SVGID_60_);stroke-width:3.6;stroke-miterlimit:10;}
</style>
<sodipodi:namedview  bordercolor="#666666" borderopacity="1.0" fit-margin-bottom="0" fit-margin-left="0" fit-margin-right="0" fit-margin-top="0" id="base" inkscape:current-layer="layer2" inkscape:cx="320.1408" inkscape:cy="219.95768" inkscape:document-units="px" inkscape:guide-bbox="true" inkscape:pageopacity="0.0" inkscape:pageshadow="2" inkscape:window-height="744" inkscape:window-maximized="1" inkscape:window-width="1366" inkscape:window-x="0" inkscape:window-y="24" inkscape:zoom="1" pagecolor="#ffffff" showgrid="false" showguides="true">
	</sodipodi:namedview>
<linearGradient id="SVGID_1_" gradientUnits="userSpaceOnUse" x1="253.3704" y1="119.6733" x2="396.4393" y2="119.6733">
	<stop  offset="0" style="stop-color:#FF6A00"/>
	<stop  offset="1" style="stop-color:#EE0979"/>
</linearGradient>
<path class="st0" d="M386.9,125.7c2.4-17.8,7.6-55.7,7.6-55.7L293.4,4.9l-37.6,16l36.8,77.6l-36.5,60.3l21.6,74.4l108-98.4
	C385.7,134.8,386.2,131.2,386.9,125.7z"/>
<linearGradient id="SVGID_2_" gradientUnits="userSpaceOnUse" x1="6.3615" y1="119.3686" x2="149.4284" y2="119.3686">
	<stop  offset="0" style="stop-color:#FF6A00"/>
	<stop  offset="1" style="stop-color:#EE0979"/>
</linearGradient>
<path class="st1" d="M114.1,89.9C123.6,70,147,20.5,147,20.5S114.7,6.8,110,4.7L8.3,69.6l8.8,64.8l108,98.4l21.6-74.4l-36.5-60.3
	C110.2,98.1,111.7,95,114.1,89.9z"/>
<linearGradient id="SVGID_3_" gradientUnits="userSpaceOnUse" x1="128.8349" y1="241.1701" x2="167.8012" y2="241.1701">
	<stop  offset="0" style="stop-color:#FF6A00"/>
	<stop  offset="1" style="stop-color:#EE0979"/>
</linearGradient>
<polyline class="st2" points="156.3,243.2 165.9,189.6 152.3,169.6 130.7,232 145.9,303.2 157.1,312 152.3,293.6 156.3,243.2 "/>
<linearGradient id="SVGID_4_" gradientUnits="userSpaceOnUse" x1="235.6029" y1="242.7216" x2="274.5642" y2="242.7216">
	<stop  offset="0" style="stop-color:#FF6A00"/>
	<stop  offset="1" style="stop-color:#EE0979"/>
</linearGradient>
<polyline class="st3" points="247.1,245.3 251.1,295.7 246.3,314.1 257.5,305.3 272.7,233.1 251.1,170.7 237.5,191.7 247.1,245.3 
	"/>
<linearGradient id="SVGID_5_" gradientUnits="userSpaceOnUse" x1="115.0523" y1="204.496" x2="287.1337" y2="204.496">
	<stop  offset="0" style="stop-color:#FF6A00"/>
	<stop  offset="1" style="stop-color:#EE0979"/>
</linearGradient>
<path class="st4" d="M172.1,196.4c-0.9-6.7-1.4-10.8-1.4-10.8l-53.6-88.8c0,0,32.4-66.3,36.4-74.4c6.8,0.1,96.4,0.8,96.4,0.8
	L285.1,96l-52,90.8l-8.8,110l23.2,68.8l20-15.2l8.8,16.8l-22.4,19.2l-30.4-9.2l-36.8-67.6C186.7,309.6,176,226.6,172.1,196.4z"/>
<linearGradient id="SVGID_6_" gradientUnits="userSpaceOnUse" x1="254.3" y1="21.8" x2="254.3" y2="21.8">
	<stop  offset="0" style="stop-color:#FF6A00"/>
	<stop  offset="1" style="stop-color:#EE0979"/>
</linearGradient>
<path class="st5" d="M254.3,21.8"/>
<linearGradient id="SVGID_7_" gradientUnits="userSpaceOnUse" x1="169.3" y1="22.4" x2="182.1" y2="22.4">
	<stop  offset="0" style="stop-color:#FF6A00"/>
	<stop  offset="1" style="stop-color:#EE0979"/>
</linearGradient>
<circle class="st6" cx="175.7" cy="22.4" r="4.6"/>
<linearGradient id="SVGID_8_" gradientUnits="userSpaceOnUse" x1="167.8" y1="212.2" x2="180.6" y2="212.2">
	<stop  offset="0" style="stop-color:#FF6A00"/>
	<stop  offset="1" style="stop-color:#EE0979"/>
</linearGradient>
<circle class="st7" cx="174.2" cy="212.2" r="4.6"/>
<linearGradient id="SVGID_9_" gradientUnits="userSpaceOnUse" x1="191.3" y1="330" x2="204.1" y2="330">
	<stop  offset="0" style="stop-color:#FF6A00"/>
	<stop  offset="1" style="stop-color:#EE0979"/>
</linearGradient>
<circle class="st8" cx="197.7" cy="330" r="4.6"/>
<linearGradient id="SVGID_10_" gradientUnits="userSpaceOnUse" x1="252.4" y1="358.2" x2="261.6" y2="358.2">
	<stop  offset="0" style="stop-color:#FF6A00"/>
	<stop  offset="1" style="stop-color:#EE0979"/>
</linearGradient>
<linearGradient id="SVGID_11_" gradientUnits="userSpaceOnUse" x1="250.6" y1="358.2" x2="263.4" y2="358.2">
	<stop  offset="0" style="stop-color:#FF6A00"/>
	<stop  offset="1" style="stop-color:#EE0979"/>
</linearGradient>
<circle class="st9" cx="257" cy="358.2" r="4.6"/>
<linearGradient id="SVGID_12_" gradientUnits="userSpaceOnUse" x1="248.7" y1="148.3" x2="261.5" y2="148.3">
	<stop  offset="0" style="stop-color:#FF6A00"/>
	<stop  offset="1" style="stop-color:#EE0979"/>
</linearGradient>
<circle class="st10" cx="255.1" cy="148.3" r="4.6"/>
<linearGradient id="SVGID_13_" gradientUnits="userSpaceOnUse" x1="261.7" y1="254.2" x2="274.5" y2="254.2">
	<stop  offset="0" style="stop-color:#FF6A00"/>
	<stop  offset="1" style="stop-color:#EE0979"/>
</linearGradient>
<circle class="st11" cx="268.1" cy="254.2" r="4.6"/>
<linearGradient id="SVGID_14_" gradientUnits="userSpaceOnUse" x1="140.5" y1="191.7" x2="149.7" y2="191.7">
	<stop  offset="0" style="stop-color:#FF6A00"/>
	<stop  offset="1" style="stop-color:#EE0979"/>
</linearGradient>
<linearGradient id="SVGID_15_" gradientUnits="userSpaceOnUse" x1="138.7" y1="191.7" x2="151.5" y2="191.7">
	<stop  offset="0" style="stop-color:#FF6A00"/>
	<stop  offset="1" style="stop-color:#EE0979"/>
</linearGradient>
<circle class="st12" cx="145.1" cy="191.7" r="4.6"/>
<linearGradient id="SVGID_16_" gradientUnits="userSpaceOnUse" x1="146.6" y1="284.2" x2="159.4" y2="284.2">
	<stop  offset="0" style="stop-color:#FF6A00"/>
	<stop  offset="1" style="stop-color:#EE0979"/>
</linearGradient>
<circle class="st13" cx="153" cy="284.2" r="4.6"/>
<linearGradient id="SVGID_17_" gradientUnits="userSpaceOnUse" x1="36.6" y1="158.8" x2="49.4" y2="158.8">
	<stop  offset="0" style="stop-color:#FF6A00"/>
	<stop  offset="1" style="stop-color:#EE0979"/>
</linearGradient>
<circle class="st14" cx="43" cy="158.8" r="4.6"/>
<linearGradient id="SVGID_18_" gradientUnits="userSpaceOnUse" x1="123.1" y1="13.1" x2="135.9" y2="13.1">
	<stop  offset="0" style="stop-color:#FF6A00"/>
	<stop  offset="1" style="stop-color:#EE0979"/>
</linearGradient>
<circle class="st15" cx="129.5" cy="13.1" r="4.6"/>
<linearGradient id="SVGID_19_" gradientUnits="userSpaceOnUse" x1="123.1" y1="58.2" x2="135.9" y2="58.2">
	<stop  offset="0" style="stop-color:#FF6A00"/>
	<stop  offset="1" style="stop-color:#EE0979"/>
</linearGradient>
<circle class="st16" cx="129.5" cy="58.2" r="4.6"/>
<linearGradient id="SVGID_20_" gradientUnits="userSpaceOnUse" x1="381.4" y1="119.8" x2="394.2" y2="119.8">
	<stop  offset="0" style="stop-color:#FF6A00"/>
	<stop  offset="1" style="stop-color:#EE0979"/>
</linearGradient>
<circle class="st17" cx="387.8" cy="119.8" r="4.6"/>
<linearGradient id="SVGID_21_" gradientUnits="userSpaceOnUse" x1="297.1" y1="211.3" x2="306.3" y2="211.3">
	<stop  offset="0" style="stop-color:#FF6A00"/>
	<stop  offset="1" style="stop-color:#EE0979"/>
</linearGradient>
<linearGradient id="SVGID_22_" gradientUnits="userSpaceOnUse" x1="295.3" y1="211.3" x2="308.1" y2="211.3">
	<stop  offset="0" style="stop-color:#FF6A00"/>
	<stop  offset="1" style="stop-color:#EE0979"/>
</linearGradient>
<circle class="st18" cx="301.7" cy="211.3" r="4.6"/>
<linearGradient id="SVGID_23_" gradientUnits="userSpaceOnUse" x1="316" y1="22.2" x2="325.2" y2="22.2">
	<stop  offset="0" style="stop-color:#FF6A00"/>
	<stop  offset="1" style="stop-color:#EE0979"/>
</linearGradient>
<linearGradient id="SVGID_24_" gradientUnits="userSpaceOnUse" x1="314.2" y1="22.2" x2="327" y2="22.2">
	<stop  offset="0" style="stop-color:#FF6A00"/>
	<stop  offset="1" style="stop-color:#EE0979"/>
</linearGradient>
<circle class="st19" cx="320.6" cy="22.2" r="4.6"/>
<linearGradient id="SVGID_25_" gradientUnits="userSpaceOnUse" x1="176.9171" y1="35.3215" x2="201.1" y2="35.3215">
	<stop  offset="0" style="stop-color:#FF6A00"/>
	<stop  offset="1" style="stop-color:#EE0979"/>
</linearGradient>
<polyline class="st20" points="178.5,27 187,42.7 201.1,42.7 "/>
<linearGradient id="SVGID_26_" gradientUnits="userSpaceOnUse" x1="272.2926" y1="60.8306" x2="309.7193" y2="60.8306">
	<stop  offset="0" style="stop-color:#FF6A00"/>
	<stop  offset="1" style="stop-color:#EE0979"/>
</linearGradient>
<polyline class="st21" points="272.3,52.3 296.7,52.2 308.2,70.3 "/>
<linearGradient id="SVGID_27_" gradientUnits="userSpaceOnUse" x1="279.6892" y1="129.5" x2="337.2" y2="129.5">
	<stop  offset="0" style="stop-color:#FF6A00"/>
	<stop  offset="1" style="stop-color:#EE0979"/>
</linearGradient>
<path class="st22" d="M279.7,122.3l33.2,0.2l8.5,14.2c0.4,0,0.7,0,0.7,0h15.1"/>
<linearGradient id="SVGID_28_" gradientUnits="userSpaceOnUse" x1="321.3" y1="136.7" x2="321.3" y2="136.7">
	<stop  offset="0" style="stop-color:#FF6A00"/>
	<stop  offset="1" style="stop-color:#EE0979"/>
</linearGradient>
<path class="st23" d="M321.3,136.7"/>
<linearGradient id="SVGID_29_" gradientUnits="userSpaceOnUse" x1="337" y1="137.5" x2="337" y2="137.5">
	<stop  offset="0" style="stop-color:#FF6A00"/>
	<stop  offset="1" style="stop-color:#EE0979"/>
</linearGradient>
<path class="st24" d="M337,137.5"/>
<linearGradient id="SVGID_30_" gradientUnits="userSpaceOnUse" x1="209.0001" y1="192.5607" x2="232.3407" y2="192.5607">
	<stop  offset="0" style="stop-color:#FF6A00"/>
	<stop  offset="1" style="stop-color:#EE0979"/>
</linearGradient>
<polyline class="st25" points="210.8,177.7 211,196.5 231.6,205.8 "/>
<linearGradient id="SVGID_31_" gradientUnits="userSpaceOnUse" x1="200.3" y1="141" x2="200.3" y2="141">
	<stop  offset="0" style="stop-color:#FF6A00"/>
	<stop  offset="1" style="stop-color:#EE0979"/>
</linearGradient>
<path class="st26" d="M200.3,141"/>
<linearGradient id="SVGID_32_" gradientUnits="userSpaceOnUse" x1="216.7" y1="141.2" x2="216.7" y2="141.2">
	<stop  offset="0" style="stop-color:#FF6A00"/>
	<stop  offset="1" style="stop-color:#EE0979"/>
</linearGradient>
<path class="st27" d="M216.7,141.2"/>
<linearGradient id="SVGID_33_" gradientUnits="userSpaceOnUse" x1="153.0908" y1="148.9528" x2="216.3" y2="148.9528">
	<stop  offset="0" style="stop-color:#FF6A00"/>
	<stop  offset="1" style="stop-color:#EE0979"/>
</linearGradient>
<path class="st28" d="M216.3,141.2c0,0-13.4,0-16.1,0c-0.8,1.7-7.9,15.5-7.9,15.5l-39.2-0.2"/>
<linearGradient id="SVGID_34_" gradientUnits="userSpaceOnUse" x1="195.2631" y1="85.4947" x2="272.0533" y2="85.4947">
	<stop  offset="0" style="stop-color:#FF6A00"/>
	<stop  offset="1" style="stop-color:#EE0979"/>
</linearGradient>
<polyline class="st29" points="196.3,104.3 217.3,89.5 243.7,89.3 270.9,66.6 "/>
<linearGradient id="SVGID_35_" gradientUnits="userSpaceOnUse" x1="124.2544" y1="92.9853" x2="160.4691" y2="92.9853">
	<stop  offset="0" style="stop-color:#FF6A00"/>
	<stop  offset="1" style="stop-color:#EE0979"/>
</linearGradient>
<polyline class="st30" points="125.7,81.3 141.8,103 159.2,85.7 "/>
<linearGradient id="SVGID_36_" gradientUnits="userSpaceOnUse" x1="256.4" y1="220.4" x2="256.4" y2="220.4">
	<stop  offset="0" style="stop-color:#FF6A00"/>
	<stop  offset="1" style="stop-color:#EE0979"/>
</linearGradient>
<path class="st31" d="M256.4,220.4"/>
<linearGradient id="SVGID_37_" gradientUnits="userSpaceOnUse" x1="254.6" y1="221.2423" x2="265.5128" y2="221.2423">
	<stop  offset="0" style="stop-color:#FF6A00"/>
	<stop  offset="1" style="stop-color:#EE0979"/>
</linearGradient>
<path class="st32" d="M256.4,233.2V221c0,0,0-0.2,0-0.5c1.7-2.5,7.7-10.1,7.7-10.1"/>
<linearGradient id="SVGID_38_" gradientUnits="userSpaceOnUse" x1="180.5" y1="265.0156" x2="214.3405" y2="265.0156">
	<stop  offset="0" style="stop-color:#FF6A00"/>
	<stop  offset="1" style="stop-color:#EE0979"/>
</linearGradient>
<polyline class="st33" points="180.5,254.2 199.2,254.2 212.8,276.7 "/>
<linearGradient id="SVGID_39_" gradientUnits="userSpaceOnUse" x1="209.3236" y1="348.8" x2="223.9764" y2="348.8">
	<stop  offset="0" style="stop-color:#FF6A00"/>
	<stop  offset="1" style="stop-color:#EE0979"/>
</linearGradient>
<line class="st34" x1="210.3" y1="352.9" x2="223" y2="344.7"/>
<linearGradient id="SVGID_40_" gradientUnits="userSpaceOnUse" x1="146.3566" y1="226.7" x2="158.6434" y2="226.7">
	<stop  offset="0" style="stop-color:#FF6A00"/>
	<stop  offset="1" style="stop-color:#EE0979"/>
</linearGradient>
<line class="st35" x1="157.7" y1="229.9" x2="147.3" y2="223.5"/>
<linearGradient id="SVGID_41_" gradientUnits="userSpaceOnUse" x1="76.5047" y1="161.4754" x2="99.1613" y2="161.4754">
	<stop  offset="0" style="stop-color:#FF6A00"/>
	<stop  offset="1" style="stop-color:#EE0979"/>
</linearGradient>
<polyline class="st36" points="82.7,194.1 97,160.8 79,144.5 91.8,129.3 "/>
<linearGradient id="SVGID_42_" gradientUnits="userSpaceOnUse" x1="36.8" y1="103.5" x2="36.8" y2="103.5">
	<stop  offset="0" style="stop-color:#FF6A00"/>
	<stop  offset="1" style="stop-color:#EE0979"/>
</linearGradient>
<path class="st37" d="M36.8,103.5"/>
<linearGradient id="SVGID_43_" gradientUnits="userSpaceOnUse" x1="49.5" y1="102.7" x2="49.5" y2="102.7">
	<stop  offset="0" style="stop-color:#FF6A00"/>
	<stop  offset="1" style="stop-color:#EE0979"/>
</linearGradient>
<path class="st38" d="M49.5,102.7"/>
<linearGradient id="SVGID_44_" gradientUnits="userSpaceOnUse" x1="11.4" y1="97.45" x2="72.2174" y2="97.45">
	<stop  offset="0" style="stop-color:#FF6A00"/>
	<stop  offset="1" style="stop-color:#EE0979"/>
</linearGradient>
<path class="st39" d="M70.7,92.2L64,102.7H36.7c0,0-0.1,0-0.4,0c-1.6-2.6-6.3-10.5-6.3-10.5H11.4"/>
<linearGradient id="SVGID_45_" gradientUnits="userSpaceOnUse" x1="117.1" y1="34.2" x2="117.1" y2="34.2">
	<stop  offset="0" style="stop-color:#FF6A00"/>
	<stop  offset="1" style="stop-color:#EE0979"/>
</linearGradient>
<path class="st40" d="M117.1,34.2"/>
<linearGradient id="SVGID_46_" gradientUnits="userSpaceOnUse" x1="95.5" y1="34.8" x2="95.5" y2="34.8">
	<stop  offset="0" style="stop-color:#FF6A00"/>
	<stop  offset="1" style="stop-color:#EE0979"/>
</linearGradient>
<path class="st41" d="M95.5,34.8"/>
<linearGradient id="SVGID_47_" gradientUnits="userSpaceOnUse" x1="117.1" y1="34.2" x2="117.1" y2="34.2">
	<stop  offset="0" style="stop-color:#FF6A00"/>
	<stop  offset="1" style="stop-color:#EE0979"/>
</linearGradient>
<path class="st42" d="M117.1,34.2"/>
<linearGradient id="SVGID_48_" gradientUnits="userSpaceOnUse" x1="84.9507" y1="34.35" x2="128.4493" y2="34.35">
	<stop  offset="0" style="stop-color:#FF6A00"/>
	<stop  offset="1" style="stop-color:#EE0979"/>
</linearGradient>
<path class="st43" d="M86.5,50.9l9.7-16.4c0,0,0.1-0.1,0.2-0.3c1.9,0,17.4,0,20.8,0l9.7-16.4"/>
<linearGradient id="SVGID_49_" gradientUnits="userSpaceOnUse" x1="67.2" y1="90.4" x2="76.4" y2="90.4">
	<stop  offset="0" style="stop-color:#FF6A00"/>
	<stop  offset="1" style="stop-color:#EE0979"/>
</linearGradient>
<linearGradient id="SVGID_50_" gradientUnits="userSpaceOnUse" x1="65.4" y1="90.4" x2="78.2" y2="90.4">
	<stop  offset="0" style="stop-color:#FF6A00"/>
	<stop  offset="1" style="stop-color:#EE0979"/>
</linearGradient>
<circle class="st44" cx="71.8" cy="90.4" r="4.6"/>
<linearGradient id="SVGID_51_" gradientUnits="userSpaceOnUse" x1="189.5" y1="105.9" x2="198.7" y2="105.9">
	<stop  offset="0" style="stop-color:#FF6A00"/>
	<stop  offset="1" style="stop-color:#EE0979"/>
</linearGradient>
<linearGradient id="SVGID_52_" gradientUnits="userSpaceOnUse" x1="187.7" y1="105.9" x2="200.5" y2="105.9">
	<stop  offset="0" style="stop-color:#FF6A00"/>
	<stop  offset="1" style="stop-color:#EE0979"/>
</linearGradient>
<circle class="st45" cx="194.1" cy="105.9" r="4.6"/>
<linearGradient id="SVGID_53_" gradientUnits="userSpaceOnUse" x1="219.9" y1="343.7" x2="229.1" y2="343.7">
	<stop  offset="0" style="stop-color:#FF6A00"/>
	<stop  offset="1" style="stop-color:#EE0979"/>
</linearGradient>
<linearGradient id="SVGID_54_" gradientUnits="userSpaceOnUse" x1="218.1" y1="343.7" x2="230.9" y2="343.7">
	<stop  offset="0" style="stop-color:#FF6A00"/>
	<stop  offset="1" style="stop-color:#EE0979"/>
</linearGradient>
<circle class="st46" cx="224.5" cy="343.7" r="4.6"/>
<linearGradient id="SVGID_55_" gradientUnits="userSpaceOnUse" x1="333.9" y1="136.7" x2="343.1" y2="136.7">
	<stop  offset="0" style="stop-color:#FF6A00"/>
	<stop  offset="1" style="stop-color:#EE0979"/>
</linearGradient>
<linearGradient id="SVGID_56_" gradientUnits="userSpaceOnUse" x1="332.1" y1="136.7" x2="344.9" y2="136.7">
	<stop  offset="0" style="stop-color:#FF6A00"/>
	<stop  offset="1" style="stop-color:#EE0979"/>
</linearGradient>
<circle class="st47" cx="338.5" cy="136.7" r="4.6"/>
<linearGradient id="SVGID_57_" gradientUnits="userSpaceOnUse" x1="303" y1="72.3" x2="315.8" y2="72.3">
	<stop  offset="0" style="stop-color:#FF6A00"/>
	<stop  offset="1" style="stop-color:#EE0979"/>
</linearGradient>
<circle class="st48" cx="309.4" cy="72.3" r="4.6"/>
<linearGradient id="SVGID_58_" gradientUnits="userSpaceOnUse" x1="154.5" y1="83.9" x2="167.3" y2="83.9">
	<stop  offset="0" style="stop-color:#FF6A00"/>
	<stop  offset="1" style="stop-color:#EE0979"/>
</linearGradient>
<circle class="st49" cx="160.9" cy="83.9" r="4.6"/>
<linearGradient id="SVGID_59_" gradientUnits="userSpaceOnUse" x1="86.6" y1="127.9" x2="99.4" y2="127.9">
	<stop  offset="0" style="stop-color:#FF6A00"/>
	<stop  offset="1" style="stop-color:#EE0979"/>
</linearGradient>
<circle class="st50" cx="93" cy="127.9" r="4.6"/>
<linearGradient id="SVGID_60_" gradientUnits="userSpaceOnUse" x1="138.9" y1="222.2" x2="151.7" y2="222.2">
	<stop  offset="0" style="stop-color:#FF6A00"/>
	<stop  offset="1" style="stop-color:#EE0979"/>
</linearGradient>
<circle class="st51" cx="145.3" cy="222.2" r="4.6"/>
</svg>
